<svg width="1024" height="1024" viewBox="0 0 1024 1024" fill="none" xmlns="http://www.w3.org/2000/svg">
<g clip-path="url(#clip0_103_3454)">
<rect width="1024" height="1024" fill="black"/>
<circle cx="512" cy="512" r="320" fill="white"/>
<path d="M512 400C547.346 400 576 428.654 576 464C576 482.942 567.77 499.961 554.691 511.679C551.332 514.688 549.653 516.193 548.89 517.434C548.105 518.713 547.793 519.546 547.547 521.026C547.307 522.463 547.527 524.22 547.966 527.733L557.752 606.016C558.946 615.565 551.499 624 541.875 624H482.125C472.501 624 465.054 615.565 466.248 606.016L476.033 527.732C476.472 524.219 476.692 522.463 476.452 521.026C476.206 519.545 475.894 518.713 475.109 517.434C474.346 516.193 472.667 514.688 469.308 511.679C456.23 499.961 448 482.942 448 464C448 428.654 476.654 400 512 400Z" fill="#212121"/>
</g>
<defs>
<clipPath id="clip0_103_3454">
<rect width="1024" height="1024" rx="256" fill="white"/>
</clipPath>
</defs>
</svg>
